<?xml version="1.0" standalone="no"?>
<!DOCTYPE svg PUBLIC "-//W3C//DTD SVG 20010904//EN"
 "http://www.w3.org/TR/2001/REC-SVG-20010904/DTD/svg10.dtd">
<svg version="1.0" xmlns="http://www.w3.org/2000/svg"
 width="700.000000pt" height="700.000000pt" viewBox="0 0 700.000000 700.000000"
 preserveAspectRatio="xMidYMid meet">
<metadata>
Created by potrace 1.14, written by Peter Selinger 2001-2017
</metadata>
<g transform="translate(0.000000,700.000000) scale(0.100000,-0.100000)"
fill="#000000" stroke="none">
<path d="M4000 6840 c-326 -40 -571 -151 -765 -345 -177 -177 -305 -434 -350
-705 -50 -297 47 -671 232 -892 41 -49 296 -312 273 -282 -8 11 6 -2 31 -30
25 -27 50 -46 56 -43 6 4 17 -1 24 -11 13 -16 12 -16 -6 -2 -20 15 -20 14 -1
-8 20 -23 42 -31 30 -9 -5 8 -2 8 9 -2 20 -16 23 -26 5 -15 -9 5 -9 2 1 -9 15
-19 36 -23 25 -5 -5 7 -3 8 5 4 7 -5 10 -11 7 -14 -7 -7 13 -32 26 -32 6 0 4
8 -3 18 -13 15 -12 16 3 4 10 -8 16 -19 15 -24 -1 -6 4 -13 12 -16 9 -3 11 0
6 8 -5 9 -4 11 4 6 6 -4 9 -11 6 -16 -3 -5 -1 -11 5 -15 5 -3 10 -1 10 6 0 7
3 10 6 6 3 -3 -137 -337 -312 -742 l-317 -737 -160 -79 c-88 -44 -163 -77
-167 -72 -4 4 -37 84 -75 177 l-67 169 28 21 c153 111 337 293 412 409 81 124
133 277 153 452 19 170 -28 401 -118 579 -28 56 -101 166 -109 166 -3 0 -2 -6
2 -12 4 -8 3 -9 -2 -5 -5 5 -9 14 -9 21 0 17 -175 182 -238 225 -75 51 -184
99 -292 128 -91 24 -117 26 -290 27 -211 1 -293 -13 -441 -75 -167 -70 -335
-217 -423 -374 -161 -282 -192 -580 -92 -876 53 -159 116 -250 292 -429 68
-69 117 -116 109 -105 -8 11 11 -7 43 -38 33 -33 65 -56 75 -55 11 2 16 -3 14
-12 -2 -8 -192 -483 -424 -1055 -231 -572 -423 -1048 -425 -1057 -4 -14 1 -18
26 -18 28 0 30 -2 21 -25 l-10 -25 884 0 884 0 26 -98 c15 -53 57 -209 94
-347 67 -250 67 -250 97 -256 17 -4 25 -7 18 -8 -6 0 -9 -10 -6 -20 3 -13 17
-21 41 -25 61 -10 2118 -246 2141 -246 12 0 21 6 21 15 0 11 8 15 26 13 25 -3
64 48 485 622 253 344 459 631 459 638 0 8 36 446 80 975 45 529 79 976 78
992 -2 22 -9 31 -25 33 -16 2 -23 10 -23 26 0 19 -4 22 -25 18 -22 -4 -25 -1
-25 27 l0 31 -448 0 -449 0 -206 479 c-114 263 -207 483 -207 487 0 5 31 29
68 54 199 133 438 363 540 518 94 144 157 329 182 536 24 203 -28 453 -142
680 -50 100 -116 198 -128 191 -5 -3 -12 0 -16 6 -4 8 -3 9 4 5 29 -17 8 13
-36 54 -26 25 -41 41 -32 35 23 -15 -65 66 -140 129 -162 135 -361 222 -599
263 -106 18 -390 25 -491 13z m477 -115 c174 -30 326 -87 456 -171 98 -63 250
-220 310 -320 129 -218 198 -472 183 -677 -8 -99 -51 -278 -91 -377 -83 -203
-326 -457 -630 -658 -55 -36 -101 -67 -103 -68 -2 -1 96 -233 218 -516 123
-282 225 -521 227 -530 5 -17 -26 -18 -551 -18 l-556 0 -380 -190 c-371 -186
-380 -189 -367 -158 8 18 148 343 311 721 164 379 296 690 294 691 -2 2 -30
20 -62 40 -246 156 -500 393 -611 570 -58 94 -121 283 -142 428 -20 136 -9
271 32 413 143 495 489 779 1017 835 109 11 334 4 445 -15z m804 -352 c13 -16
12 -17 -3 -4 -10 7 -18 15 -18 17 0 8 8 3 21 -13z m69 -103 c6 -11 8 -20 6
-20 -3 0 -10 9 -16 20 -6 11 -8 20 -6 20 3 0 10 -9 16 -20z m177 -522 c-3 -7
-5 -2 -5 12 0 14 2 19 5 13 2 -7 2 -19 0 -25z m10 -160 c-2 -18 -4 -4 -4 32 0
36 2 50 4 33 2 -18 2 -48 0 -65z m-10 -120 c-3 -7 -5 -2 -5 12 0 14 2 19 5 13
2 -7 2 -19 0 -25z m-106 -365 c-12 -20 -14 -14 -5 12 4 9 9 14 11 11 3 -2 0
-13 -6 -23z m-26 -53 c-9 -16 -18 -30 -21 -30 -2 0 2 14 11 30 9 17 18 30 21
30 2 0 -2 -13 -11 -30z m-42 -71 c-10 -17 -24 -36 -32 -42 -8 -7 -2 7 14 31
32 49 45 57 18 11z m-43 -62 c0 -2 -10 -12 -22 -23 l-23 -19 19 23 c18 21 26
27 26 19z m-40 -50 c0 -2 -17 -19 -37 -38 l-38 -34 34 38 c33 34 41 42 41 34z
m-90 -100 c0 -2 -12 -14 -27 -28 l-28 -24 24 28 c23 25 31 32 31 24z m-70 -60
c0 -2 -19 -21 -42 -42 l-43 -40 40 43 c36 39 45 47 45 39z m-100 -90 c0 -2
-10 -12 -22 -23 l-23 -19 19 23 c18 21 26 27 26 19z m-1555 -47 c10 -11 16
-20 13 -20 -3 0 -13 9 -23 20 -10 11 -16 20 -13 20 3 0 13 -9 23 -20z m1505 7
c0 -2 -10 -12 -22 -23 l-23 -19 19 23 c18 21 26 27 26 19z m-50 -41 c0 -2 -8
-10 -17 -17 -16 -13 -17 -12 -4 4 13 16 21 21 21 13z m-70 -50 c0 -2 -8 -10
-17 -17 -16 -13 -17 -12 -4 4 13 16 21 21 21 13z m-91 -111 c0 -5 -4 -3 -9 5
-5 8 -9 22 -9 30 0 16 17 -16 18 -35z m-1642 -97 c-3 -8 -6 -5 -6 6 -1 11 2
17 5 13 3 -3 4 -12 1 -19z m10 -145 c-2 -16 -4 -5 -4 22 0 28 2 40 4 28 2 -13
2 -35 0 -50z m1733 12 c0 -5 -5 -3 -10 5 -5 8 -10 20 -10 25 0 6 5 3 10 -5 5
-8 10 -19 10 -25z m30 -70 c0 -5 -5 -3 -10 5 -5 8 -10 20 -10 25 0 6 5 3 10
-5 5 -8 10 -19 10 -25z m-1773 -57 c-3 -8 -6 -5 -6 6 -1 11 2 17 5 13 3 -3 4
-12 1 -19z m1803 -13 c0 -5 -5 -3 -10 5 -5 8 -10 20 -10 25 0 6 5 3 10 -5 5
-8 10 -19 10 -25z m30 -70 c0 -5 -5 -3 -10 5 -5 8 -10 20 -10 25 0 6 5 3 10
-5 5 -8 10 -19 10 -25z m100 -230 c0 -5 -5 -3 -10 5 -5 8 -10 20 -10 25 0 6 5
3 10 -5 5 -8 10 -19 10 -25z m30 -70 c0 -5 -5 -3 -10 5 -5 8 -10 20 -10 25 0
6 5 3 10 -5 5 -8 10 -19 10 -25z m30 -70 c0 -5 -5 -3 -10 5 -5 8 -10 20 -10
25 0 6 5 3 10 -5 5 -8 10 -19 10 -25z m-2170 1 c0 -2 -8 -10 -17 -17 -16 -13
-17 -12 -4 4 13 16 21 21 21 13z m2200 -71 c0 -5 -5 -3 -10 5 -5 8 -10 20 -10
25 0 6 5 3 10 -5 5 -8 10 -19 10 -25z m-2240 22 c0 -2 -12 -14 -27 -28 l-28
-24 24 28 c23 25 31 32 31 24z m2270 -92 c0 -5 -5 -3 -10 5 -5 8 -10 20 -10
25 0 6 5 3 10 -5 5 -8 10 -19 10 -25z m-2430 -68 c0 -2 -12 -14 -27 -28 l-28
-24 24 28 c23 25 31 32 31 24z m-70 -60 c0 -2 -10 -12 -22 -23 l-23 -19 19 23
c18 21 26 27 26 19z m3288 -44 c-183 -200 -1024 -1099 -1029 -1101 -6 -2
-2178 334 -2389 370 l-64 11 744 373 745 373 1009 0 1010 1 -26 -27z m-4337
-10 c13 -16 12 -17 -3 -4 -17 13 -22 21 -14 21 2 0 10 -8 17 -17z m999 13 c0
-2 -8 -10 -17 -17 -16 -13 -17 -12 -4 4 13 16 21 21 21 13z m3537 -38 c-3 -7
-5 -2 -5 12 0 14 2 19 5 13 2 -7 2 -19 0 -25z m-4496 -5 c13 -16 12 -17 -3 -4
-17 13 -22 21 -14 21 2 0 10 -8 17 -17z m4310 -904 c-39 -464 -73 -868 -76
-896 -6 -50 -25 -78 -411 -604 -329 -449 -404 -546 -405 -523 0 16 -17 424
-37 906 l-37 877 515 551 c283 304 516 548 517 543 2 -5 -28 -389 -66 -854z
m176 789 c-3 -7 -5 -2 -5 12 0 14 2 19 5 13 2 -7 2 -19 0 -25z m-10 -120 c-3
-7 -5 -2 -5 12 0 14 2 19 5 13 2 -7 2 -19 0 -25z m-10 -120 c-3 -7 -5 -2 -5
12 0 14 2 19 5 13 2 -7 2 -19 0 -25z m-10 -120 c-3 -7 -5 -2 -5 12 0 14 2 19
5 13 2 -7 2 -19 0 -25z m-10 -120 c-3 -7 -5 -2 -5 12 0 14 2 19 5 13 2 -7 2
-19 0 -25z m-10 -120 c-3 -7 -5 -2 -5 12 0 14 2 19 5 13 2 -7 2 -19 0 -25z
m-2440 -261 c678 -106 1234 -195 1236 -197 3 -3 22 -427 43 -942 l39 -937 -40
5 c-22 3 -482 56 -1023 119 -541 62 -986 116 -989 119 -3 3 -127 454 -274
1003 -148 548 -271 1005 -275 1015 -4 15 -1 17 23 12 15 -3 582 -92 1260 -197z
m2430 141 c-3 -7 -5 -2 -5 12 0 14 2 19 5 13 2 -7 2 -19 0 -25z m-10 -120 c-3
-7 -5 -2 -5 12 0 14 2 19 5 13 2 -7 2 -19 0 -25z m-10 -120 c-3 -7 -5 -2 -5
12 0 14 2 19 5 13 2 -7 2 -19 0 -25z m-10 -120 c-3 -7 -5 -2 -5 12 0 14 2 19
5 13 2 -7 2 -19 0 -25z m-10 -120 c-3 -7 -5 -2 -5 12 0 14 2 19 5 13 2 -7 2
-19 0 -25z m-10 -120 c-3 -7 -5 -2 -5 12 0 14 2 19 5 13 2 -7 2 -19 0 -25z
m-10 -120 c-3 -7 -5 -2 -5 12 0 14 2 19 5 13 2 -7 2 -19 0 -25z m-10 -120 c-3
-7 -5 -2 -5 12 0 14 2 19 5 13 2 -7 2 -19 0 -25z m-10 -120 c-3 -7 -5 -2 -5
12 0 14 2 19 5 13 2 -7 2 -19 0 -25z m-97 -222 c0 -2 -8 -10 -17 -17 -16 -13
-17 -12 -4 4 13 16 21 21 21 13z m-110 -150 c0 -2 -8 -10 -17 -17 -16 -13 -17
-12 -4 4 13 16 21 21 21 13z m-110 -150 c0 -2 -8 -10 -17 -17 -16 -13 -17 -12
-4 4 13 16 21 21 21 13z m-110 -150 c0 -2 -8 -10 -17 -17 -16 -13 -17 -12 -4
4 13 16 21 21 21 13z m-110 -150 c0 -2 -8 -10 -17 -17 -16 -13 -17 -12 -4 4
13 16 21 21 21 13z m-110 -150 c0 -2 -8 -10 -17 -17 -16 -13 -17 -12 -4 4 13
16 21 21 21 13z m-110 -150 c0 -2 -8 -10 -17 -17 -16 -13 -17 -12 -4 4 13 16
21 21 21 13z m-2273 -12 c-3 -3 -12 -4 -19 -1 -8 3 -5 6 6 6 11 1 17 -2 13 -5z
m90 -10 c-3 -3 -12 -4 -19 -1 -8 3 -5 6 6 6 11 1 17 -2 13 -5z m170 -20 c-3
-3 -12 -4 -19 -1 -8 3 -5 6 6 6 11 1 17 -2 13 -5z m260 -30 c-3 -3 -12 -4 -19
-1 -8 3 -5 6 6 6 11 1 17 -2 13 -5z m90 -10 c-3 -3 -12 -4 -19 -1 -8 3 -5 6 6
6 11 1 17 -2 13 -5z m170 -20 c-3 -3 -12 -4 -19 -1 -8 3 -5 6 6 6 11 1 17 -2
13 -5z m90 -10 c-3 -3 -12 -4 -19 -1 -8 3 -5 6 6 6 11 1 17 -2 13 -5z m170
-20 c-3 -3 -12 -4 -19 -1 -8 3 -5 6 6 6 11 1 17 -2 13 -5z m1123 -18 c0 -2 -8
-10 -17 -17 -16 -13 -17 -12 -4 4 13 16 21 21 21 13z m-863 -12 c-3 -3 -12 -4
-19 -1 -8 3 -5 6 6 6 11 1 17 -2 13 -5z m90 -10 c-3 -3 -12 -4 -19 -1 -8 3 -5
6 6 6 11 1 17 -2 13 -5z m170 -20 c-3 -3 -12 -4 -19 -1 -8 3 -5 6 6 6 11 1 17
-2 13 -5z m260 -30 c-3 -3 -12 -4 -19 -1 -8 3 -5 6 6 6 11 1 17 -2 13 -5z m90
-10 c-3 -3 -12 -4 -19 -1 -8 3 -5 6 6 6 11 1 17 -2 13 -5z m80 -10 c-3 -3 -12
-4 -19 -1 -8 3 -5 6 6 6 11 1 17 -2 13 -5z"/>
<path d="M5090 3155 c-72 -33 -90 -74 -47 -112 95 -86 352 -34 308 63 -16 36
-68 57 -151 61 -53 2 -85 -1 -110 -12z"/>
<path d="M4330 2996 c-127 -27 -175 -106 -109 -181 74 -84 276 -86 358 -4 103
102 -63 225 -249 185z"/>
<path d="M3505 2823 c-69 -25 -109 -56 -130 -99 -35 -74 0 -145 93 -191 50
-25 68 -28 147 -27 100 1 142 14 199 65 87 76 52 194 -73 246 -57 24 -177 27
-236 6z"/>
<path d="M5428 1990 c-14 -10 -36 -43 -49 -72 -20 -45 -23 -69 -23 -158 0 -74
5 -118 18 -150 38 -100 110 -130 166 -70 41 44 64 120 64 215 0 184 -90 303
-176 235z"/>
<path d="M3035 1998 c-32 -11 -92 -52 -113 -78 -135 -164 -20 -410 192 -410
117 0 210 69 242 179 38 128 -31 262 -157 306 -48 17 -120 18 -164 3z"/>
<path d="M4235 1840 c-148 -22 -242 -170 -200 -315 20 -71 77 -135 147 -165
119 -51 264 5 323 126 28 56 27 165 -2 219 -53 99 -156 151 -268 135z"/>
<path d="M3227 1009 c-58 -14 -91 -34 -135 -84 -119 -135 -58 -349 114 -401
60 -18 100 -18 155 1 164 56 222 259 115 400 -50 65 -167 105 -249 84z"/>
<path d="M4356 835 c-96 -37 -155 -115 -163 -218 -7 -82 22 -152 84 -207 57
-50 98 -63 183 -58 132 7 221 96 228 228 2 38 -1 84 -7 103 -16 47 -75 114
-124 139 -53 27 -149 33 -201 13z"/>
</g>
</svg>
